<svg width="142" height="66" viewBox="0 0 142 66" fill="none" xmlns="http://www.w3.org/2000/svg">
<path d="M109.31 0.669891C100.93 0.669891 92.98 3.87988 86.93 9.68988C86.81 9.79988 86.69 9.91988 86.55 10.0599L63.19 34.1699L50.42 47.2299L50.39 47.2699C46.07 52.5399 39.71 55.5699 32.92 55.5699C32.77 55.5699 32.62 55.5699 32.48 55.5699C32.39 55.5699 32.31 55.5699 32.21 55.5699C31.88 55.5699 31.56 55.5399 31.25 55.5199H31.13C31.06 55.4999 30.99 55.4999 30.89 55.4899C30.78 55.4899 30.68 55.4699 30.55 55.4599C30.48 55.4599 30.4 55.4399 30.33 55.4399H30.2L30 55.3999C29.8 55.3699 29.6 55.3499 29.39 55.3099C29.29 55.2999 29.2 55.2799 29.09 55.2599H29.05C29.05 55.2599 28.96 55.2398 28.89 55.2198C28.8 55.1998 28.71 55.1899 28.61 55.1699C28.38 55.1299 28.16 55.0799 27.95 55.0299L27.64 54.9599C27.43 54.9099 27.22 54.8599 27.02 54.7999C26.69 54.7099 26.39 54.6199 26.09 54.5199C26 54.4899 25.91 54.4599 25.82 54.4299L25.77 54.4099C25.6 54.3498 25.44 54.2999 25.27 54.2399C25.27 54.2399 25.17 54.1999 25.11 54.1799C24.93 54.1099 24.75 54.0399 24.55 53.9599C24.46 53.9299 24.37 53.8899 24.27 53.8399C24.17 53.7999 24.08 53.7599 23.97 53.7099C23.59 53.5399 23.2 53.3599 22.81 53.1599C22.72 53.1199 22.63 53.0699 22.54 53.0199L22.51 52.9999C22.42 52.9599 22.33 52.9099 22.23 52.8499C22.15 52.7999 22.06 52.7599 21.96 52.6999C21.88 52.6499 21.79 52.6099 21.69 52.5499C21.51 52.4499 21.33 52.3398 21.14 52.2198C21.06 52.1698 20.98 52.1199 20.9 52.0699L20.86 52.0499C20.78 51.9999 20.7 51.9499 20.61 51.8899C20.27 51.6699 19.91 51.4198 19.56 51.1599C19.4 51.0399 19.24 50.9199 19.09 50.7999L19.03 50.7499C18.88 50.6299 18.72 50.5099 18.57 50.3799C18.33 50.1799 18.09 49.9799 17.84 49.7499C17.77 49.6899 17.7 49.6199 17.61 49.5399C17.54 49.4799 17.47 49.4099 17.39 49.3299C17.31 49.2599 17.24 49.1799 17.15 49.0999C17.09 49.0399 17.02 48.9699 16.96 48.9099L16.93 48.8799C16.86 48.8099 16.8 48.7499 16.72 48.6699C16.04 47.9599 15.39 47.1999 14.81 46.4099L14.71 46.2799C14.63 46.1699 14.56 46.0699 14.47 45.9499C14.37 45.8099 14.27 45.6599 14.16 45.4999C14.06 45.3499 13.96 45.1999 13.86 45.0499C13.76 44.8999 13.67 44.7499 13.57 44.5699C13.48 44.4299 13.4 44.2899 13.33 44.1599L13.22 43.9599C13.17 43.8699 13.12 43.7799 13.07 43.6999C13.04 43.6499 13.02 43.5999 12.99 43.5499L12.97 43.5199C12.9 43.3999 12.84 43.2699 12.77 43.1399C12.69 42.9799 12.61 42.8199 12.53 42.6399C12.47 42.5099 12.4 42.3699 12.34 42.2199C12.31 42.1599 12.29 42.0999 12.26 42.0299V41.9999C12.2 41.8999 12.16 41.7999 12.12 41.6999C12.12 41.6799 12.08 41.5899 12.08 41.5899C12.02 41.4499 11.96 41.3099 11.9 41.1399C11.84 40.9799 11.78 40.8199 11.72 40.6599C11.6 40.3199 11.49 39.9899 11.39 39.6699V39.6299C11.36 39.5699 11.34 39.4999 11.32 39.4399V39.3899L11.29 39.3399L11.27 39.2799V39.2399C11.27 39.2399 11.25 39.1999 11.24 39.1899C11.21 39.0799 11.18 38.9699 11.15 38.8599C10.65 36.9699 10.39 35.0099 10.39 33.0199C10.39 30.7799 10.72 28.5699 11.36 26.4499C11.53 25.8899 11.7 25.3799 11.89 24.8999C11.95 24.7299 12.02 24.5699 12.09 24.3899C12.15 24.2499 12.21 24.1099 12.27 23.9699L12.32 23.8499C12.39 23.6999 12.46 23.5499 12.54 23.3799C12.61 23.2199 12.69 23.0599 12.78 22.8899C12.86 22.7299 12.94 22.5799 13.03 22.4099C13.11 22.2499 13.2 22.0999 13.28 21.9499L13.3 21.9199C13.38 21.7699 13.47 21.6199 13.57 21.4599C13.69 21.2699 13.81 21.0699 13.94 20.8699C14.05 20.6999 14.16 20.5399 14.27 20.3699L14.29 20.3399C14.33 20.2799 14.37 20.2199 14.41 20.1599L14.43 20.1299L14.45 20.0999C14.45 20.0999 14.54 19.9799 14.57 19.9299C15.29 18.9199 16.11 17.9599 16.99 17.0799C21.24 12.8299 26.9 10.4799 32.92 10.4799C38.94 10.4799 44.59 12.8199 48.85 17.0799C49.44 17.6699 49.99 18.2899 50.51 18.9299L35.87 33.5699C34.95 34.4899 34.44 35.7199 34.44 37.0199C34.44 38.3199 34.95 39.5499 35.87 40.4699C36.79 41.3899 38.02 41.8999 39.32 41.8999C40.62 41.8999 41.85 41.3899 42.77 40.4699L56.43 26.8099L58.27 24.9699L60.28 22.9599C60.41 22.8299 60.52 22.7099 60.61 22.5999C60.67 22.5299 60.72 22.4599 60.76 22.4099C60.79 22.3699 60.82 22.3299 60.85 22.2899C60.85 22.2899 60.91 22.2099 60.91 22.1999L60.96 22.1499L61.02 22.0299C61.02 22.0299 61.07 21.9499 61.08 21.9299C61.76 20.7399 61.94 19.3499 61.56 18.0699V18.0499L61.49 17.8599C61.4 17.6099 61.3 17.3699 61.18 17.1599C61.15 17.1099 61.12 17.0599 61.1 17.0099L61.06 16.9399L61.03 16.9099C59.61 14.4299 57.86 12.1399 55.83 10.1099C49.71 3.98986 41.57 0.609863 32.91 0.609863C24.25 0.609863 16.11 3.97988 9.99001 10.0999C3.87001 16.2199 0.5 24.3599 0.5 33.0199C0.5 41.6799 3.87001 49.8199 9.99001 55.9399C16.1 62.0499 24.24 65.4199 32.91 65.4199C41.58 65.4199 49.71 62.0499 55.83 55.9399L56.18 55.5899C56.68 55.0699 57.16 54.5399 57.61 54.0099L71.16 40.0399L86.03 55.3899L86.87 56.2499H86.88C92.94 62.1299 100.88 65.3599 109.36 65.3599C127.19 65.3599 141.69 50.8599 141.69 33.0299C141.69 15.1999 127.19 0.69989 109.36 0.69989L109.31 0.669891ZM109.31 55.5799C103.1 55.5799 97.3 53.0999 92.98 48.5699L77.91 33.0199L92.39 18.0899L92.43 18.0499C92.87 17.5499 93.35 17.0599 93.84 16.5999C98.05 12.6299 103.54 10.4399 109.31 10.4399C121.76 10.4399 131.88 20.5699 131.88 33.0099C131.88 45.4499 121.75 55.5799 109.31 55.5799Z" fill="white"/>
</svg>
